# xmcd
#
# Track frame offsets:
#	150
#	5155
#	15752
#	23362
#	29052
#	40742
#	52837
#	67180
#	77715
#	88940
#	99100
#	110570
#	119420
#	127627
#	141762
#	151477
#
# Disc length: 2184 seconds
#
# Revision: 1
# Processed by: cddbd v1.5.2PL0 Copyright (c) Steve Scherf et al.
# Submitted via: EasyCDDAExtractor 8.2.3.1
#
DISCID=bf088610
DTITLE=Charlie Rich - Greatest Hits
DYEAR=2001
DGENRE=Country
TTITLE0=Blue Suede Shoes
TTITLE1=Ain't It A Shame
TTITLE2=Baby I Need You
TTITLE3=Donna Lee
TTITLE4=The Wedding's Over
TTITLE5=Big Man
TTITLE6=I've Lost My Heart To You
TTITLE7=CC Rider
TTITLE8=Caught In The Middle
TTITLE9=We Belong To Each Other
TTITLE10=My Baby Done Left Me
TTITLE11=Please Say You Love Me
TTITLE12=When
TTITLE13=Time and Time Again
TTITLE14=There's Something You Need To Know
TTITLE15=Lonely Days
EXTD=
EXTT0=
EXTT1=
EXTT2=
EXTT3=
EXTT4=
EXTT5=
EXTT6=
EXTT7=
EXTT8=
EXTT9=
EXTT10=
EXTT11=
EXTT12=
EXTT13=
EXTT14=
EXTT15=
PLAYORDER=
